<svg width="500" height="500" viewBox="0 0 500 500" fill="none" xmlns="http://www.w3.org/2000/svg">
<g clip-path="url(#clip0)">
<path d="M500 250C500 388.071 388.071 500 250 500C111.929 500 0 388.071 0 250C0 111.929 111.929 0 250 0C388.071 0 500 111.929 500 250Z" fill="white"/>
<path fill-rule="evenodd" clip-rule="evenodd" d="M250 450C360.457 450 450 360.457 450 250C450 139.543 360.457 50 250 50C139.543 50 50 139.543 50 250C50 360.457 139.543 450 250 450ZM250 500C388.071 500 500 388.071 500 250C500 111.929 388.071 0 250 0C111.929 0 0 111.929 0 250C0 388.071 111.929 500 250 500Z" fill="black"/>
<path fill-rule="evenodd" clip-rule="evenodd" d="M150.366 74.7912L196.56 55.657L236.034 150.956C245.415 149.626 254.811 149.665 263.962 150.964L303.44 55.657L349.634 74.7912L310.156 170.098C317.546 175.65 324.217 182.267 329.91 189.84L425.209 150.366L444.343 196.56L349.044 236.034C350.374 245.415 350.335 254.811 349.036 263.962L444.343 303.44L425.209 349.634L329.902 310.156C324.35 317.546 317.733 324.217 310.16 329.91L349.634 425.209L303.44 444.343L263.966 349.044C254.585 350.374 245.189 350.335 236.038 349.036L196.56 444.343L150.366 425.209L189.844 329.902C182.454 324.35 175.783 317.733 170.09 310.16L74.7912 349.634L55.657 303.44L150.956 263.966C149.626 254.585 149.665 245.189 150.964 236.038L55.657 196.56L74.7912 150.366L170.098 189.844C175.65 182.454 182.267 175.783 189.84 170.09L150.366 74.7912Z" fill="black"/>
<circle cx="250" cy="250" r="50" fill="white"/>
</g>
<defs>
<clipPath id="clip0">
<rect width="500" height="500" fill="white"/>
</clipPath>
</defs>
</svg>
