<svg width="383" height="50" viewBox="0 0 383 50" fill="none" xmlns="http://www.w3.org/2000/svg">
<path d="M73 15H88.12V18.78H82.54L78.88 36H74.92L78.58 18.78H73V15ZM99.9191 27.36C99.9591 27.14 99.9891 26.97 100.009 26.85C100.029 26.71 100.039 26.56 100.039 26.4C100.039 25.68 99.8291 25.12 99.4091 24.72C98.9891 24.32 98.4191 24.12 97.6991 24.12C96.6791 24.12 95.8391 24.48 95.1791 25.2C94.5391 25.92 94.0891 26.88 93.8291 28.08L92.1491 36H88.3691L92.9291 14.58H96.7091L94.8791 23.16H95.4191C96.4391 21.52 97.8991 20.7 99.7991 20.7C101.039 20.7 102.049 21.07 102.829 21.81C103.629 22.55 104.029 23.63 104.029 25.05C104.029 25.33 104.009 25.62 103.969 25.92C103.929 26.2 103.879 26.5 103.819 26.82L102.619 32.43L102.919 32.64L104.839 31.32L106.729 34.14L104.479 35.64C103.719 36.16 102.909 36.42 102.049 36.42C101.609 36.42 101.189 36.34 100.789 36.18C100.389 36.04 100.039 35.83 99.7391 35.55C99.4391 35.27 99.1991 34.93 99.0191 34.53C98.8391 34.13 98.7491 33.68 98.7491 33.18C98.7491 32.92 98.7891 32.6 98.8691 32.22L99.9191 27.36ZM111.688 29.79C111.648 29.95 111.628 30.12 111.628 30.3C111.628 31.02 111.898 31.62 112.438 32.1C112.998 32.58 113.728 32.82 114.628 32.82C115.568 32.82 116.318 32.65 116.878 32.31C117.438 31.97 117.868 31.57 118.168 31.11L121.168 33C120.928 33.4 120.608 33.8 120.208 34.2C119.828 34.6 119.348 34.97 118.768 35.31C118.208 35.63 117.538 35.89 116.758 36.09C115.998 36.31 115.108 36.42 114.088 36.42C113.168 36.42 112.318 36.28 111.538 36C110.778 35.7 110.118 35.3 109.558 34.8C109.018 34.28 108.588 33.67 108.268 32.97C107.968 32.25 107.818 31.46 107.818 30.6C107.818 29.24 108.018 27.96 108.418 26.76C108.838 25.56 109.438 24.51 110.218 23.61C110.998 22.71 111.958 22 113.098 21.48C114.238 20.96 115.548 20.7 117.028 20.7C118.068 20.7 118.968 20.87 119.728 21.21C120.508 21.53 121.148 21.97 121.648 22.53C122.148 23.07 122.518 23.69 122.758 24.39C123.018 25.09 123.148 25.81 123.148 26.55C123.148 26.79 123.128 27.04 123.088 27.3C123.068 27.54 123.018 27.86 122.938 28.26L122.608 29.79H111.688ZM116.428 24.12C115.488 24.12 114.668 24.36 113.968 24.84C113.288 25.3 112.778 25.87 112.438 26.55H119.458C119.458 25.79 119.218 25.2 118.738 24.78C118.278 24.34 117.508 24.12 116.428 24.12ZM151.037 25.38H160.307V25.74L158.147 36H154.547L155.057 33.66H154.517C154.117 34.44 153.517 35.1 152.717 35.64C151.917 36.16 150.837 36.42 149.477 36.42C148.697 36.42 147.977 36.29 147.317 36.03C146.657 35.79 146.087 35.42 145.607 34.92C145.127 34.42 144.747 33.81 144.467 33.09C144.207 32.35 144.077 31.5 144.077 30.54C144.077 29.76 144.177 28.9 144.377 27.96L145.427 23.04C146.047 20.14 147.147 18.01 148.727 16.65C150.327 15.27 152.397 14.58 154.937 14.58C155.937 14.58 156.827 14.74 157.607 15.06C158.407 15.36 159.077 15.78 159.617 16.32C160.157 16.86 160.567 17.49 160.847 18.21C161.147 18.91 161.297 19.66 161.297 20.46C161.297 20.74 161.277 21.04 161.237 21.36C161.197 21.66 161.147 21.94 161.087 22.2L160.997 22.56H157.037L157.127 22.2C157.187 21.96 157.227 21.75 157.247 21.57C157.267 21.39 157.277 21.21 157.277 21.03C157.277 20.19 157.017 19.54 156.497 19.08C155.977 18.6 155.217 18.36 154.217 18.36C153.657 18.36 153.127 18.45 152.627 18.63C152.127 18.81 151.657 19.1 151.217 19.5C150.797 19.88 150.427 20.39 150.107 21.03C149.787 21.65 149.527 22.42 149.327 23.34L148.367 27.78C148.287 28.14 148.237 28.44 148.217 28.68C148.197 28.92 148.187 29.16 148.187 29.4C148.187 30.48 148.467 31.29 149.027 31.83C149.587 32.37 150.347 32.64 151.307 32.64C152.487 32.64 153.447 32.33 154.187 31.71C154.947 31.07 155.437 30.22 155.657 29.16H151.037V25.38ZM176.216 32.43L176.516 32.64L177.956 31.62L179.846 34.44L178.076 35.64C177.296 36.16 176.476 36.42 175.616 36.42C174.856 36.42 174.176 36.21 173.576 35.79C172.976 35.37 172.596 34.78 172.436 34.02H171.896C171.716 34.36 171.506 34.68 171.266 34.98C171.026 35.26 170.726 35.51 170.366 35.73C170.026 35.93 169.616 36.09 169.136 36.21C168.676 36.35 168.126 36.42 167.486 36.42C166.706 36.42 165.986 36.27 165.326 35.97C164.666 35.65 164.086 35.22 163.586 34.68C163.106 34.12 162.726 33.47 162.446 32.73C162.166 31.99 162.026 31.18 162.026 30.3C162.026 28.96 162.206 27.71 162.566 26.55C162.926 25.39 163.446 24.38 164.126 23.52C164.806 22.64 165.636 21.95 166.616 21.45C167.616 20.95 168.736 20.7 169.976 20.7C171.076 20.7 171.946 20.92 172.586 21.36C173.226 21.8 173.656 22.38 173.876 23.1H174.416L174.836 21.12H178.616L176.216 32.43ZM168.956 32.82C169.676 32.82 170.316 32.68 170.876 32.4C171.436 32.1 171.896 31.71 172.256 31.23C172.636 30.75 172.926 30.19 173.126 29.55C173.326 28.89 173.426 28.2 173.426 27.48C173.426 26.54 173.156 25.78 172.616 25.2C172.076 24.6 171.356 24.3 170.456 24.3C169.736 24.3 169.096 24.45 168.536 24.75C167.976 25.03 167.506 25.41 167.126 25.89C166.746 26.37 166.456 26.94 166.256 27.6C166.056 28.24 165.956 28.92 165.956 29.64C165.956 30.48 166.196 31.22 166.676 31.86C167.176 32.5 167.936 32.82 168.956 32.82ZM191.405 35.64C191.005 35.92 190.595 36.12 190.175 36.24C189.755 36.36 189.345 36.42 188.945 36.42C188.505 36.42 188.085 36.34 187.685 36.18C187.285 36.04 186.935 35.84 186.635 35.58C186.335 35.3 186.095 34.97 185.915 34.59C185.755 34.19 185.675 33.75 185.675 33.27C185.675 32.91 185.715 32.56 185.795 32.22L189.065 18.57L188.765 18.36L184.745 21.12L182.855 18.3L187.205 15.36C187.605 15.08 188.015 14.88 188.435 14.76C188.855 14.64 189.265 14.58 189.665 14.58C190.105 14.58 190.525 14.66 190.925 14.82C191.325 14.96 191.675 15.17 191.975 15.45C192.275 15.71 192.505 16.04 192.665 16.44C192.845 16.82 192.935 17.25 192.935 17.73C192.935 18.05 192.895 18.4 192.815 18.78L189.545 32.43L189.845 32.64L193.865 29.88L195.755 32.7L191.405 35.64ZM212.954 32.43L213.254 32.64L214.694 31.62L216.584 34.44L214.814 35.64C214.034 36.16 213.214 36.42 212.354 36.42C211.594 36.42 210.914 36.21 210.314 35.79C209.714 35.37 209.334 34.78 209.174 34.02H208.634C208.454 34.36 208.244 34.68 208.004 34.98C207.764 35.26 207.464 35.51 207.104 35.73C206.764 35.93 206.354 36.09 205.874 36.21C205.414 36.35 204.864 36.42 204.224 36.42C203.444 36.42 202.724 36.27 202.064 35.97C201.404 35.65 200.824 35.22 200.324 34.68C199.844 34.12 199.464 33.47 199.184 32.73C198.904 31.99 198.764 31.18 198.764 30.3C198.764 28.96 198.944 27.71 199.304 26.55C199.664 25.39 200.184 24.38 200.864 23.52C201.544 22.64 202.374 21.95 203.354 21.45C204.354 20.95 205.474 20.7 206.714 20.7C207.814 20.7 208.684 20.92 209.324 21.36C209.964 21.8 210.394 22.38 210.614 23.1H211.154L211.574 21.12H215.354L212.954 32.43ZM205.694 32.82C206.414 32.82 207.054 32.68 207.614 32.4C208.174 32.1 208.634 31.71 208.994 31.23C209.374 30.75 209.664 30.19 209.864 29.55C210.064 28.89 210.164 28.2 210.164 27.48C210.164 26.54 209.894 25.78 209.354 25.2C208.814 24.6 208.094 24.3 207.194 24.3C206.474 24.3 205.834 24.45 205.274 24.75C204.714 25.03 204.244 25.41 203.864 25.89C203.484 26.37 203.194 26.94 202.994 27.6C202.794 28.24 202.694 28.92 202.694 29.64C202.694 30.48 202.934 31.22 203.414 31.86C203.914 32.5 204.674 32.82 205.694 32.82ZM232.973 30.54C232.413 32.32 231.413 33.75 229.973 34.83C228.553 35.89 226.643 36.42 224.243 36.42C223.363 36.42 222.533 36.28 221.753 36C220.973 35.72 220.293 35.3 219.713 34.74C219.133 34.18 218.673 33.49 218.333 32.67C218.013 31.83 217.853 30.86 217.853 29.76C217.853 28.52 218.063 27.35 218.483 26.25C218.923 25.15 219.553 24.19 220.373 23.37C221.193 22.55 222.183 21.9 223.343 21.42C224.503 20.94 225.823 20.7 227.303 20.7C228.383 20.7 229.333 20.86 230.153 21.18C230.973 21.5 231.653 21.94 232.193 22.5C232.733 23.04 233.143 23.68 233.423 24.42C233.703 25.16 233.843 25.94 233.843 26.76L230.003 27.51C230.003 26.49 229.743 25.7 229.223 25.14C228.723 24.58 227.903 24.3 226.763 24.3C226.043 24.3 225.373 24.44 224.753 24.72C224.153 24.98 223.623 25.35 223.163 25.83C222.723 26.29 222.373 26.84 222.113 27.48C221.873 28.1 221.753 28.77 221.753 29.49C221.753 30.63 222.053 31.47 222.653 32.01C223.253 32.55 224.013 32.82 224.933 32.82C226.193 32.82 227.173 32.54 227.873 31.98C228.573 31.42 229.103 30.63 229.463 29.61L232.973 30.54ZM241.862 24.72H237.662V21.12H242.642L244.022 14.58H247.802L246.422 21.12H251.582V24.72H245.642L243.962 32.43L244.262 32.64L248.282 29.88L250.172 32.7L245.822 35.64C245.062 36.16 244.252 36.42 243.392 36.42C242.952 36.42 242.532 36.34 242.132 36.18C241.732 36.04 241.382 35.83 241.082 35.55C240.782 35.27 240.542 34.93 240.362 34.53C240.182 34.13 240.092 33.68 240.092 33.18C240.092 33.02 240.102 32.88 240.122 32.76C240.142 32.62 240.172 32.44 240.212 32.22L241.862 24.72ZM265.091 35.64C264.691 35.92 264.281 36.12 263.861 36.24C263.441 36.36 263.031 36.42 262.631 36.42C262.191 36.42 261.771 36.34 261.371 36.18C260.971 36.04 260.621 35.84 260.321 35.58C260.021 35.3 259.781 34.97 259.601 34.59C259.441 34.19 259.361 33.75 259.361 33.27C259.361 32.89 259.401 32.54 259.481 32.22L261.281 24.69L260.981 24.48L256.961 27.24L255.071 24.42L259.421 21.48C259.821 21.2 260.231 21 260.651 20.88C261.071 20.76 261.481 20.7 261.881 20.7C262.321 20.7 262.741 20.78 263.141 20.94C263.541 21.08 263.891 21.29 264.191 21.57C264.491 21.83 264.721 22.16 264.881 22.56C265.061 22.94 265.151 23.37 265.151 23.85C265.151 24.23 265.111 24.58 265.031 24.9L263.231 32.43L263.531 32.64L267.551 29.88L269.441 32.7L265.091 35.64ZM267.701 16.71C267.701 17.11 267.621 17.49 267.461 17.85C267.321 18.19 267.121 18.49 266.861 18.75C266.601 18.99 266.291 19.19 265.931 19.35C265.591 19.49 265.231 19.56 264.851 19.56C264.451 19.56 264.081 19.49 263.741 19.35C263.401 19.19 263.101 18.99 262.841 18.75C262.581 18.49 262.371 18.19 262.211 17.85C262.071 17.49 262.001 17.11 262.001 16.71C262.001 16.31 262.071 15.94 262.211 15.6C262.371 15.24 262.581 14.94 262.841 14.7C263.101 14.44 263.401 14.24 263.741 14.1C264.081 13.94 264.451 13.86 264.851 13.86C265.231 13.86 265.591 13.94 265.931 14.1C266.291 14.24 266.601 14.44 266.861 14.7C267.121 14.94 267.321 15.24 267.461 15.6C267.621 15.94 267.701 16.31 267.701 16.71ZM288.081 30.54C287.521 32.32 286.521 33.75 285.081 34.83C283.661 35.89 281.751 36.42 279.351 36.42C278.471 36.42 277.641 36.28 276.861 36C276.081 35.72 275.401 35.3 274.821 34.74C274.241 34.18 273.781 33.49 273.441 32.67C273.121 31.83 272.961 30.86 272.961 29.76C272.961 28.52 273.171 27.35 273.591 26.25C274.031 25.15 274.661 24.19 275.481 23.37C276.301 22.55 277.291 21.9 278.451 21.42C279.611 20.94 280.931 20.7 282.411 20.7C283.491 20.7 284.441 20.86 285.261 21.18C286.081 21.5 286.761 21.94 287.301 22.5C287.841 23.04 288.251 23.68 288.531 24.42C288.811 25.16 288.951 25.94 288.951 26.76L285.111 27.51C285.111 26.49 284.851 25.7 284.331 25.14C283.831 24.58 283.011 24.3 281.871 24.3C281.151 24.3 280.481 24.44 279.861 24.72C279.261 24.98 278.731 25.35 278.271 25.83C277.831 26.29 277.481 26.84 277.221 27.48C276.981 28.1 276.861 28.77 276.861 29.49C276.861 30.63 277.161 31.47 277.761 32.01C278.361 32.55 279.121 32.82 280.041 32.82C281.301 32.82 282.281 32.54 282.981 31.98C283.681 31.42 284.211 30.63 284.571 29.61L288.081 30.54ZM318.999 34.02H319.539L323.589 15H327.369L322.899 36H315.519L316.929 16.98H316.389L312.339 36H308.589L313.029 15H320.409L318.999 34.02ZM332.118 29.79C332.078 29.95 332.058 30.12 332.058 30.3C332.058 31.02 332.328 31.62 332.868 32.1C333.428 32.58 334.158 32.82 335.058 32.82C335.998 32.82 336.748 32.65 337.308 32.31C337.868 31.97 338.298 31.57 338.598 31.11L341.598 33C341.358 33.4 341.038 33.8 340.638 34.2C340.258 34.6 339.778 34.97 339.198 35.31C338.638 35.63 337.968 35.89 337.188 36.09C336.428 36.31 335.538 36.42 334.518 36.42C333.598 36.42 332.748 36.28 331.968 36C331.208 35.7 330.548 35.3 329.988 34.8C329.448 34.28 329.018 33.67 328.698 32.97C328.398 32.25 328.248 31.46 328.248 30.6C328.248 29.24 328.448 27.96 328.848 26.76C329.268 25.56 329.868 24.51 330.648 23.61C331.428 22.71 332.388 22 333.528 21.48C334.668 20.96 335.978 20.7 337.458 20.7C338.498 20.7 339.398 20.87 340.158 21.21C340.938 21.53 341.578 21.97 342.078 22.53C342.578 23.07 342.948 23.69 343.188 24.39C343.448 25.09 343.578 25.81 343.578 26.55C343.578 26.79 343.558 27.04 343.518 27.3C343.498 27.54 343.448 27.86 343.368 28.26L343.038 29.79H332.118ZM336.858 24.12C335.918 24.12 335.098 24.36 334.398 24.84C333.718 25.3 333.208 25.87 332.868 26.55H339.888C339.888 25.79 339.648 25.2 339.168 24.78C338.708 24.34 337.938 24.12 336.858 24.12ZM349.887 32.22L349.557 33.84H350.097L350.427 32.4L353.457 21.12H359.457L357.897 32.4L357.597 33.84H358.137L358.497 32.22L361.527 20.76L364.617 21.51L360.627 36H354.597L356.367 22.92H355.827L352.377 36H346.497L348.207 21.12H351.357L349.887 32.22ZM373.566 24.12C373.346 24.12 373.116 24.15 372.876 24.21C372.656 24.25 372.446 24.32 372.246 24.42C372.046 24.52 371.876 24.66 371.736 24.84C371.616 25 371.556 25.2 371.556 25.44C371.556 25.86 371.796 26.17 372.276 26.37C372.756 26.57 373.576 26.74 374.736 26.88C376.036 27.04 377.086 27.44 377.886 28.08C378.686 28.7 379.086 29.6 379.086 30.78C379.086 32.54 378.466 33.92 377.226 34.92C376.006 35.92 374.306 36.42 372.126 36.42C371.026 36.42 370.076 36.26 369.276 35.94C368.496 35.62 367.846 35.22 367.326 34.74C366.826 34.26 366.446 33.73 366.186 33.15C365.926 32.57 365.786 32.02 365.766 31.5L369.486 30.6C369.546 31.26 369.826 31.83 370.326 32.31C370.826 32.77 371.586 33 372.606 33C373.306 33 373.916 32.89 374.436 32.67C374.956 32.45 375.216 32.06 375.216 31.5C375.216 31.08 375.016 30.75 374.616 30.51C374.216 30.25 373.476 30.07 372.396 29.97C370.956 29.85 369.806 29.44 368.946 28.74C368.106 28.04 367.686 27.11 367.686 25.95C367.686 25.11 367.856 24.36 368.196 23.7C368.556 23.04 369.026 22.49 369.606 22.05C370.186 21.61 370.856 21.28 371.616 21.06C372.396 20.82 373.206 20.7 374.046 20.7C375.086 20.7 375.956 20.84 376.656 21.12C377.356 21.4 377.926 21.75 378.366 22.17C378.806 22.59 379.126 23.05 379.326 23.55C379.546 24.03 379.686 24.48 379.746 24.9L376.086 25.86C376.006 25.32 375.756 24.9 375.336 24.6C374.916 24.28 374.326 24.12 373.566 24.12Z" fill="black"/>
<path d="M50 25C50 38.8071 38.8071 50 25 50C11.1929 50 0 38.8071 0 25C0 11.1929 11.1929 0 25 0C38.8071 0 50 11.1929 50 25Z" fill="white"/>
<path fill-rule="evenodd" clip-rule="evenodd" d="M25 45C36.0457 45 45 36.0457 45 25C45 13.9543 36.0457 5 25 5C13.9543 5 5 13.9543 5 25C5 36.0457 13.9543 45 25 45ZM25 50C38.8071 50 50 38.8071 50 25C50 11.1929 38.8071 0 25 0C11.1929 0 0 11.1929 0 25C0 38.8071 11.1929 50 25 50Z" fill="black"/>
<path d="M15.0366 7.47912L19.656 5.5657L23.6034 15.0956C24.5415 14.9626 25.4811 14.9665 26.3962 15.0964L30.3439 5.5657L34.9633 7.47912L31.0156 17.0098C31.7546 17.565 32.4217 18.2267 32.991 18.984L42.5209 15.0366L44.4343 19.656L34.9044 23.6034C35.0374 24.5415 35.0335 25.4811 34.9036 26.3962L44.4343 30.344L42.5209 34.9634L32.9902 31.0156C32.4349 31.7546 31.7733 32.4217 31.0159 32.991L34.9633 42.5209L30.3439 44.4343L26.3965 34.9044C25.4585 35.0374 24.5189 35.0335 23.6037 34.9036L19.656 44.4343L15.0366 42.5209L18.9843 32.9902C18.2454 32.435 17.5783 31.7733 17.0089 31.016L7.47909 34.9634L5.56567 30.344L15.0955 26.3966C14.9626 25.4585 14.9664 24.5189 15.0963 23.6038L5.56567 19.656L7.47909 15.0366L17.0098 18.9844C17.565 18.2454 18.2267 17.5783 18.984 17.009L15.0366 7.47912Z" fill="black"/>
<circle cx="25" cy="25" r="5" fill="white"/>
</svg>
