<svg width="385" height="54" viewBox="0 0 385 54" fill="none" xmlns="http://www.w3.org/2000/svg">
<path d="M75 17H90.12V20.78H84.54L80.88 38H76.92L80.58 20.78H75V17ZM101.919 29.36C101.959 29.14 101.989 28.97 102.009 28.85C102.029 28.71 102.039 28.56 102.039 28.4C102.039 27.68 101.829 27.12 101.409 26.72C100.989 26.32 100.419 26.12 99.6991 26.12C98.6791 26.12 97.8391 26.48 97.1791 27.2C96.5391 27.92 96.0891 28.88 95.8291 30.08L94.1491 38H90.3691L94.9291 16.58H98.7091L96.8791 25.16H97.4191C98.4391 23.52 99.8991 22.7 101.799 22.7C103.039 22.7 104.049 23.07 104.829 23.81C105.629 24.55 106.029 25.63 106.029 27.05C106.029 27.33 106.009 27.62 105.969 27.92C105.929 28.2 105.879 28.5 105.819 28.82L104.619 34.43L104.919 34.64L106.839 33.32L108.729 36.14L106.479 37.64C105.719 38.16 104.909 38.42 104.049 38.42C103.609 38.42 103.189 38.34 102.789 38.18C102.389 38.04 102.039 37.83 101.739 37.55C101.439 37.27 101.199 36.93 101.019 36.53C100.839 36.13 100.749 35.68 100.749 35.18C100.749 34.92 100.789 34.6 100.869 34.22L101.919 29.36ZM113.688 31.79C113.648 31.95 113.628 32.12 113.628 32.3C113.628 33.02 113.898 33.62 114.438 34.1C114.998 34.58 115.728 34.82 116.628 34.82C117.568 34.82 118.318 34.65 118.878 34.31C119.438 33.97 119.868 33.57 120.168 33.11L123.168 35C122.928 35.4 122.608 35.8 122.208 36.2C121.828 36.6 121.348 36.97 120.768 37.31C120.208 37.63 119.538 37.89 118.758 38.09C117.998 38.31 117.108 38.42 116.088 38.42C115.168 38.42 114.318 38.28 113.538 38C112.778 37.7 112.118 37.3 111.558 36.8C111.018 36.28 110.588 35.67 110.268 34.97C109.968 34.25 109.818 33.46 109.818 32.6C109.818 31.24 110.018 29.96 110.418 28.76C110.838 27.56 111.438 26.51 112.218 25.61C112.998 24.71 113.958 24 115.098 23.48C116.238 22.96 117.548 22.7 119.028 22.7C120.068 22.7 120.968 22.87 121.728 23.21C122.508 23.53 123.148 23.97 123.648 24.53C124.148 25.07 124.518 25.69 124.758 26.39C125.018 27.09 125.148 27.81 125.148 28.55C125.148 28.79 125.128 29.04 125.088 29.3C125.068 29.54 125.018 29.86 124.938 30.26L124.608 31.79H113.688ZM118.428 26.12C117.488 26.12 116.668 26.36 115.968 26.84C115.288 27.3 114.778 27.87 114.438 28.55H121.458C121.458 27.79 121.218 27.2 120.738 26.78C120.278 26.34 119.508 26.12 118.428 26.12ZM153.037 27.38H162.307V27.74L160.147 38H156.547L157.057 35.66H156.517C156.117 36.44 155.517 37.1 154.717 37.64C153.917 38.16 152.837 38.42 151.477 38.42C150.697 38.42 149.977 38.29 149.317 38.03C148.657 37.79 148.087 37.42 147.607 36.92C147.127 36.42 146.747 35.81 146.467 35.09C146.207 34.35 146.077 33.5 146.077 32.54C146.077 31.76 146.177 30.9 146.377 29.96L147.427 25.04C148.047 22.14 149.147 20.01 150.727 18.65C152.327 17.27 154.397 16.58 156.937 16.58C157.937 16.58 158.827 16.74 159.607 17.06C160.407 17.36 161.077 17.78 161.617 18.32C162.157 18.86 162.567 19.49 162.847 20.21C163.147 20.91 163.297 21.66 163.297 22.46C163.297 22.74 163.277 23.04 163.237 23.36C163.197 23.66 163.147 23.94 163.087 24.2L162.997 24.56H159.037L159.127 24.2C159.187 23.96 159.227 23.75 159.247 23.57C159.267 23.39 159.277 23.21 159.277 23.03C159.277 22.19 159.017 21.54 158.497 21.08C157.977 20.6 157.217 20.36 156.217 20.36C155.657 20.36 155.127 20.45 154.627 20.63C154.127 20.81 153.657 21.1 153.217 21.5C152.797 21.88 152.427 22.39 152.107 23.03C151.787 23.65 151.527 24.42 151.327 25.34L150.367 29.78C150.287 30.14 150.237 30.44 150.217 30.68C150.197 30.92 150.187 31.16 150.187 31.4C150.187 32.48 150.467 33.29 151.027 33.83C151.587 34.37 152.347 34.64 153.307 34.64C154.487 34.64 155.447 34.33 156.187 33.71C156.947 33.07 157.437 32.22 157.657 31.16H153.037V27.38ZM178.216 34.43L178.516 34.64L179.956 33.62L181.846 36.44L180.076 37.64C179.296 38.16 178.476 38.42 177.616 38.42C176.856 38.42 176.176 38.21 175.576 37.79C174.976 37.37 174.596 36.78 174.436 36.02H173.896C173.716 36.36 173.506 36.68 173.266 36.98C173.026 37.26 172.726 37.51 172.366 37.73C172.026 37.93 171.616 38.09 171.136 38.21C170.676 38.35 170.126 38.42 169.486 38.42C168.706 38.42 167.986 38.27 167.326 37.97C166.666 37.65 166.086 37.22 165.586 36.68C165.106 36.12 164.726 35.47 164.446 34.73C164.166 33.99 164.026 33.18 164.026 32.3C164.026 30.96 164.206 29.71 164.566 28.55C164.926 27.39 165.446 26.38 166.126 25.52C166.806 24.64 167.636 23.95 168.616 23.45C169.616 22.95 170.736 22.7 171.976 22.7C173.076 22.7 173.946 22.92 174.586 23.36C175.226 23.8 175.656 24.38 175.876 25.1H176.416L176.836 23.12H180.616L178.216 34.43ZM170.956 34.82C171.676 34.82 172.316 34.68 172.876 34.4C173.436 34.1 173.896 33.71 174.256 33.23C174.636 32.75 174.926 32.19 175.126 31.55C175.326 30.89 175.426 30.2 175.426 29.48C175.426 28.54 175.156 27.78 174.616 27.2C174.076 26.6 173.356 26.3 172.456 26.3C171.736 26.3 171.096 26.45 170.536 26.75C169.976 27.03 169.506 27.41 169.126 27.89C168.746 28.37 168.456 28.94 168.256 29.6C168.056 30.24 167.956 30.92 167.956 31.64C167.956 32.48 168.196 33.22 168.676 33.86C169.176 34.5 169.936 34.82 170.956 34.82ZM193.405 37.64C193.005 37.92 192.595 38.12 192.175 38.24C191.755 38.36 191.345 38.42 190.945 38.42C190.505 38.42 190.085 38.34 189.685 38.18C189.285 38.04 188.935 37.84 188.635 37.58C188.335 37.3 188.095 36.97 187.915 36.59C187.755 36.19 187.675 35.75 187.675 35.27C187.675 34.91 187.715 34.56 187.795 34.22L191.065 20.57L190.765 20.36L186.745 23.12L184.855 20.3L189.205 17.36C189.605 17.08 190.015 16.88 190.435 16.76C190.855 16.64 191.265 16.58 191.665 16.58C192.105 16.58 192.525 16.66 192.925 16.82C193.325 16.96 193.675 17.17 193.975 17.45C194.275 17.71 194.505 18.04 194.665 18.44C194.845 18.82 194.935 19.25 194.935 19.73C194.935 20.05 194.895 20.4 194.815 20.78L191.545 34.43L191.845 34.64L195.865 31.88L197.755 34.7L193.405 37.64ZM214.954 34.43L215.254 34.64L216.694 33.62L218.584 36.44L216.814 37.64C216.034 38.16 215.214 38.42 214.354 38.42C213.594 38.42 212.914 38.21 212.314 37.79C211.714 37.37 211.334 36.78 211.174 36.02H210.634C210.454 36.36 210.244 36.68 210.004 36.98C209.764 37.26 209.464 37.51 209.104 37.73C208.764 37.93 208.354 38.09 207.874 38.21C207.414 38.35 206.864 38.42 206.224 38.42C205.444 38.42 204.724 38.27 204.064 37.97C203.404 37.65 202.824 37.22 202.324 36.68C201.844 36.12 201.464 35.47 201.184 34.73C200.904 33.99 200.764 33.18 200.764 32.3C200.764 30.96 200.944 29.71 201.304 28.55C201.664 27.39 202.184 26.38 202.864 25.52C203.544 24.64 204.374 23.95 205.354 23.45C206.354 22.95 207.474 22.7 208.714 22.7C209.814 22.7 210.684 22.92 211.324 23.36C211.964 23.8 212.394 24.38 212.614 25.1H213.154L213.574 23.12H217.354L214.954 34.43ZM207.694 34.82C208.414 34.82 209.054 34.68 209.614 34.4C210.174 34.1 210.634 33.71 210.994 33.23C211.374 32.75 211.664 32.19 211.864 31.55C212.064 30.89 212.164 30.2 212.164 29.48C212.164 28.54 211.894 27.78 211.354 27.2C210.814 26.6 210.094 26.3 209.194 26.3C208.474 26.3 207.834 26.45 207.274 26.75C206.714 27.03 206.244 27.41 205.864 27.89C205.484 28.37 205.194 28.94 204.994 29.6C204.794 30.24 204.694 30.92 204.694 31.64C204.694 32.48 204.934 33.22 205.414 33.86C205.914 34.5 206.674 34.82 207.694 34.82ZM234.973 32.54C234.413 34.32 233.413 35.75 231.973 36.83C230.553 37.89 228.643 38.42 226.243 38.42C225.363 38.42 224.533 38.28 223.753 38C222.973 37.72 222.293 37.3 221.713 36.74C221.133 36.18 220.673 35.49 220.333 34.67C220.013 33.83 219.853 32.86 219.853 31.76C219.853 30.52 220.063 29.35 220.483 28.25C220.923 27.15 221.553 26.19 222.373 25.37C223.193 24.55 224.183 23.9 225.343 23.42C226.503 22.94 227.823 22.7 229.303 22.7C230.383 22.7 231.333 22.86 232.153 23.18C232.973 23.5 233.653 23.94 234.193 24.5C234.733 25.04 235.143 25.68 235.423 26.42C235.703 27.16 235.843 27.94 235.843 28.76L232.003 29.51C232.003 28.49 231.743 27.7 231.223 27.14C230.723 26.58 229.903 26.3 228.763 26.3C228.043 26.3 227.373 26.44 226.753 26.72C226.153 26.98 225.623 27.35 225.163 27.83C224.723 28.29 224.373 28.84 224.113 29.48C223.873 30.1 223.753 30.77 223.753 31.49C223.753 32.63 224.053 33.47 224.653 34.01C225.253 34.55 226.013 34.82 226.933 34.82C228.193 34.82 229.173 34.54 229.873 33.98C230.573 33.42 231.103 32.63 231.463 31.61L234.973 32.54ZM243.862 26.72H239.662V23.12H244.642L246.022 16.58H249.802L248.422 23.12H253.582V26.72H247.642L245.962 34.43L246.262 34.64L250.282 31.88L252.172 34.7L247.822 37.64C247.062 38.16 246.252 38.42 245.392 38.42C244.952 38.42 244.532 38.34 244.132 38.18C243.732 38.04 243.382 37.83 243.082 37.55C242.782 37.27 242.542 36.93 242.362 36.53C242.182 36.13 242.092 35.68 242.092 35.18C242.092 35.02 242.102 34.88 242.122 34.76C242.142 34.62 242.172 34.44 242.212 34.22L243.862 26.72ZM267.091 37.64C266.691 37.92 266.281 38.12 265.861 38.24C265.441 38.36 265.031 38.42 264.631 38.42C264.191 38.42 263.771 38.34 263.371 38.18C262.971 38.04 262.621 37.84 262.321 37.58C262.021 37.3 261.781 36.97 261.601 36.59C261.441 36.19 261.361 35.75 261.361 35.27C261.361 34.89 261.401 34.54 261.481 34.22L263.281 26.69L262.981 26.48L258.961 29.24L257.071 26.42L261.421 23.48C261.821 23.2 262.231 23 262.651 22.88C263.071 22.76 263.481 22.7 263.881 22.7C264.321 22.7 264.741 22.78 265.141 22.94C265.541 23.08 265.891 23.29 266.191 23.57C266.491 23.83 266.721 24.16 266.881 24.56C267.061 24.94 267.151 25.37 267.151 25.85C267.151 26.23 267.111 26.58 267.031 26.9L265.231 34.43L265.531 34.64L269.551 31.88L271.441 34.7L267.091 37.64ZM269.701 18.71C269.701 19.11 269.621 19.49 269.461 19.85C269.321 20.19 269.121 20.49 268.861 20.75C268.601 20.99 268.291 21.19 267.931 21.35C267.591 21.49 267.231 21.56 266.851 21.56C266.451 21.56 266.081 21.49 265.741 21.35C265.401 21.19 265.101 20.99 264.841 20.75C264.581 20.49 264.371 20.19 264.211 19.85C264.071 19.49 264.001 19.11 264.001 18.71C264.001 18.31 264.071 17.94 264.211 17.6C264.371 17.24 264.581 16.94 264.841 16.7C265.101 16.44 265.401 16.24 265.741 16.1C266.081 15.94 266.451 15.86 266.851 15.86C267.231 15.86 267.591 15.94 267.931 16.1C268.291 16.24 268.601 16.44 268.861 16.7C269.121 16.94 269.321 17.24 269.461 17.6C269.621 17.94 269.701 18.31 269.701 18.71ZM290.081 32.54C289.521 34.32 288.521 35.75 287.081 36.83C285.661 37.89 283.751 38.42 281.351 38.42C280.471 38.42 279.641 38.28 278.861 38C278.081 37.72 277.401 37.3 276.821 36.74C276.241 36.18 275.781 35.49 275.441 34.67C275.121 33.83 274.961 32.86 274.961 31.76C274.961 30.52 275.171 29.35 275.591 28.25C276.031 27.15 276.661 26.19 277.481 25.37C278.301 24.55 279.291 23.9 280.451 23.42C281.611 22.94 282.931 22.7 284.411 22.7C285.491 22.7 286.441 22.86 287.261 23.18C288.081 23.5 288.761 23.94 289.301 24.5C289.841 25.04 290.251 25.68 290.531 26.42C290.811 27.16 290.951 27.94 290.951 28.76L287.111 29.51C287.111 28.49 286.851 27.7 286.331 27.14C285.831 26.58 285.011 26.3 283.871 26.3C283.151 26.3 282.481 26.44 281.861 26.72C281.261 26.98 280.731 27.35 280.271 27.83C279.831 28.29 279.481 28.84 279.221 29.48C278.981 30.1 278.861 30.77 278.861 31.49C278.861 32.63 279.161 33.47 279.761 34.01C280.361 34.55 281.121 34.82 282.041 34.82C283.301 34.82 284.281 34.54 284.981 33.98C285.681 33.42 286.211 32.63 286.571 31.61L290.081 32.54ZM320.999 36.02H321.539L325.589 17H329.369L324.899 38H317.519L318.929 18.98H318.389L314.339 38H310.589L315.029 17H322.409L320.999 36.02ZM334.118 31.79C334.078 31.95 334.058 32.12 334.058 32.3C334.058 33.02 334.328 33.62 334.868 34.1C335.428 34.58 336.158 34.82 337.058 34.82C337.998 34.82 338.748 34.65 339.308 34.31C339.868 33.97 340.298 33.57 340.598 33.11L343.598 35C343.358 35.4 343.038 35.8 342.638 36.2C342.258 36.6 341.778 36.97 341.198 37.31C340.638 37.63 339.968 37.89 339.188 38.09C338.428 38.31 337.538 38.42 336.518 38.42C335.598 38.42 334.748 38.28 333.968 38C333.208 37.7 332.548 37.3 331.988 36.8C331.448 36.28 331.018 35.67 330.698 34.97C330.398 34.25 330.248 33.46 330.248 32.6C330.248 31.24 330.448 29.96 330.848 28.76C331.268 27.56 331.868 26.51 332.648 25.61C333.428 24.71 334.388 24 335.528 23.48C336.668 22.96 337.978 22.7 339.458 22.7C340.498 22.7 341.398 22.87 342.158 23.21C342.938 23.53 343.578 23.97 344.078 24.53C344.578 25.07 344.948 25.69 345.188 26.39C345.448 27.09 345.578 27.81 345.578 28.55C345.578 28.79 345.558 29.04 345.518 29.3C345.498 29.54 345.448 29.86 345.368 30.26L345.038 31.79H334.118ZM338.858 26.12C337.918 26.12 337.098 26.36 336.398 26.84C335.718 27.3 335.208 27.87 334.868 28.55H341.888C341.888 27.79 341.648 27.2 341.168 26.78C340.708 26.34 339.938 26.12 338.858 26.12ZM351.887 34.22L351.557 35.84H352.097L352.427 34.4L355.457 23.12H361.457L359.897 34.4L359.597 35.84H360.137L360.497 34.22L363.527 22.76L366.617 23.51L362.627 38H356.597L358.367 24.92H357.827L354.377 38H348.497L350.207 23.12H353.357L351.887 34.22ZM375.566 26.12C375.346 26.12 375.116 26.15 374.876 26.21C374.656 26.25 374.446 26.32 374.246 26.42C374.046 26.52 373.876 26.66 373.736 26.84C373.616 27 373.556 27.2 373.556 27.44C373.556 27.86 373.796 28.17 374.276 28.37C374.756 28.57 375.576 28.74 376.736 28.88C378.036 29.04 379.086 29.44 379.886 30.08C380.686 30.7 381.086 31.6 381.086 32.78C381.086 34.54 380.466 35.92 379.226 36.92C378.006 37.92 376.306 38.42 374.126 38.42C373.026 38.42 372.076 38.26 371.276 37.94C370.496 37.62 369.846 37.22 369.326 36.74C368.826 36.26 368.446 35.73 368.186 35.15C367.926 34.57 367.786 34.02 367.766 33.5L371.486 32.6C371.546 33.26 371.826 33.83 372.326 34.31C372.826 34.77 373.586 35 374.606 35C375.306 35 375.916 34.89 376.436 34.67C376.956 34.45 377.216 34.06 377.216 33.5C377.216 33.08 377.016 32.75 376.616 32.51C376.216 32.25 375.476 32.07 374.396 31.97C372.956 31.85 371.806 31.44 370.946 30.74C370.106 30.04 369.686 29.11 369.686 27.95C369.686 27.11 369.856 26.36 370.196 25.7C370.556 25.04 371.026 24.49 371.606 24.05C372.186 23.61 372.856 23.28 373.616 23.06C374.396 22.82 375.206 22.7 376.046 22.7C377.086 22.7 377.956 22.84 378.656 23.12C379.356 23.4 379.926 23.75 380.366 24.17C380.806 24.59 381.126 25.05 381.326 25.55C381.546 26.03 381.686 26.48 381.746 26.9L378.086 27.86C378.006 27.32 377.756 26.9 377.336 26.6C376.916 26.28 376.326 26.12 375.566 26.12Z" fill="black"/>
<path d="M27 53C41.3594 53 53 41.3594 53 27C53 12.6406 41.3594 1 27 1C12.6406 1 1 12.6406 1 27C1 41.3594 12.6406 53 27 53Z" fill="white" stroke="white" stroke-width="2"/>
<path fill-rule="evenodd" clip-rule="evenodd" d="M27 47C38.0457 47 47 38.0457 47 27C47 15.9543 38.0457 7 27 7C15.9543 7 7 15.9543 7 27C7 38.0457 15.9543 47 27 47ZM27 52C40.8071 52 52 40.8071 52 27C52 13.1929 40.8071 2 27 2C13.1929 2 2 13.1929 2 27C2 40.8071 13.1929 52 27 52Z" fill="black"/>
<path d="M17.0367 9.47912L21.6561 7.5657L25.6034 17.0956C26.5415 16.9626 27.4811 16.9665 28.3963 17.0964L32.344 7.5657L36.9634 9.47912L33.0157 19.0098C33.7546 19.565 34.4217 20.2267 34.991 20.984L44.5209 17.0366L46.4343 21.656L36.9045 25.6034C37.0374 26.5415 37.0336 27.4811 36.9037 28.3962L46.4343 32.344L44.5209 36.9634L34.9902 33.0156C34.435 33.7546 33.7733 34.4217 33.016 34.991L36.9634 44.5209L32.344 46.4343L28.3966 36.9044C27.4585 37.0374 26.5189 37.0335 25.6038 36.9036L21.6561 46.4343L17.0367 44.5209L20.9844 34.9902C20.2454 34.435 19.5783 33.7733 19.009 33.016L9.47914 36.9634L7.56572 32.344L17.0956 28.3966C16.9626 27.4585 16.9665 26.5189 17.0964 25.6038L7.56572 21.656L9.47914 17.0366L19.0098 20.9844C19.5651 20.2454 20.2267 19.5783 20.9841 19.009L17.0367 9.47912Z" fill="black"/>
<circle cx="27" cy="27" r="5" fill="white"/>
</svg>
