<svg width="51" height="50" viewBox="0 0 51 50" fill="none" xmlns="http://www.w3.org/2000/svg">
<path d="M25.6853 0.375488C11.8725 0.375488 0.685303 11.5627 0.685303 25.3755C0.685303 37.1244 8.747 46.8755 19.6236 49.6244C19.4981 49.3117 19.4364 48.8734 19.4364 48.4372V44.1861H16.3108C14.6236 44.1861 13.0598 43.4372 12.3725 42.0606C11.5598 40.5606 11.4342 38.2478 9.37254 36.8095C8.747 36.3095 9.247 35.8095 9.93424 35.8712C11.247 36.2457 12.3087 37.1223 13.3087 38.4329C14.3087 39.7457 14.747 40.0585 16.6215 40.0585C17.4959 40.0585 18.8704 39.9968 20.1215 39.8074C20.8087 38.0563 21.9959 36.4946 23.4342 35.7457C15.0598 34.7457 11.0598 30.6202 11.0598 24.9946C11.0598 22.5563 12.1215 20.2436 13.8725 18.2436C13.3108 16.3053 12.5598 12.3053 14.1236 10.7436C17.8747 10.7436 20.1236 13.1819 20.6853 13.8053C22.5598 13.1797 24.6236 12.8053 26.747 12.8053C28.9342 12.8053 30.9342 13.1797 32.8087 13.8053C33.3704 13.1797 35.6215 10.7436 39.3704 10.7436C40.8704 12.2436 40.1832 16.3053 39.5576 18.2436C41.3087 20.1819 42.3087 22.5563 42.3087 24.9946C42.3087 30.6202 38.3704 34.7457 30.0598 35.6202C32.3725 36.8074 33.9981 40.1819 33.9981 42.6819V48.3755C33.9981 48.5627 33.9364 48.75 33.9364 48.9372C43.6853 45.5627 50.6853 36.3138 50.6853 25.3755C50.6853 11.5627 39.4981 0.375488 25.6853 0.375488Z" fill="white"/>
</svg>
