<svg width="40" height="40" viewBox="0 0 40 40" fill="none" xmlns="http://www.w3.org/2000/svg">
<path d="M19.9012 11.2C21.0058 11.2 21.9012 10.3046 21.9012 9.2C21.9012 8.09543 21.0058 7.2 19.9012 7.2C18.7967 7.2 17.9012 8.09543 17.9012 9.2C17.9012 10.3046 18.7967 11.2 19.9012 11.2Z" fill="black"/>
<path fill-rule="evenodd" clip-rule="evenodd" d="M0 18C1.00345 7.89335 9.53055 0 19.9013 0C30.2719 0 38.799 7.89335 39.8025 18H0ZM25.9012 9.2C25.9012 12.5137 23.215 15.2 19.9012 15.2C16.5875 15.2 13.9012 12.5137 13.9012 9.2C13.9012 5.88629 16.5875 3.2 19.9012 3.2C23.215 3.2 25.9012 5.88629 25.9012 9.2Z" fill="black"/>
<path d="M0 22C1.00345 32.1066 9.53055 40 19.9013 40C30.2719 40 38.799 32.1066 39.8025 22H0Z" fill="black"/>
</svg>
