<svg width="48" height="50" viewBox="0 0 48 50" fill="none" xmlns="http://www.w3.org/2000/svg">
<path d="M39.9158 24.986C39.9158 22.8085 39.4924 20.7286 38.6456 18.7465C37.7988 16.7644 36.6542 15.0521 35.2118 13.6097C33.7694 12.1673 32.0571 11.0227 30.075 10.1759C28.0928 9.32905 26.013 8.90564 23.8354 8.90564C21.6579 8.90564 19.578 9.32905 17.5959 10.1759C15.6138 11.0227 13.9015 12.1673 12.4591 13.6097C11.0167 15.0521 9.87211 16.7644 9.02528 18.7465C8.17846 20.7286 7.75504 22.8085 7.75504 24.986C7.75504 27.1636 8.17846 29.2434 9.02528 31.2256C9.87211 33.2077 11.0167 34.92 12.4591 36.3624C13.9015 37.8048 15.6138 38.9494 17.5959 39.7962C19.578 40.643 21.6579 41.0664 23.8354 41.0664C26.013 41.0664 28.0928 40.643 30.075 39.7962C32.0571 38.9494 33.7694 37.8048 35.2118 36.3624C36.6542 34.92 37.7988 33.2077 38.6456 31.2256C39.4924 29.2434 39.9158 27.1636 39.9158 24.986ZM47.621 32.7192C47.5466 32.9983 47.3605 33.1844 47.0627 33.2775L38.9108 35.9576V44.5003C38.9108 44.7981 38.7898 45.04 38.5479 45.2261C38.2687 45.4122 37.9989 45.4495 37.7383 45.3378L29.5864 42.7136L24.5613 49.6371C24.3752 49.879 24.1332 50 23.8354 50C23.5377 50 23.2957 49.879 23.1096 49.6371L18.0845 42.7136L9.9326 45.3378C9.67204 45.4495 9.40217 45.4122 9.123 45.2261C8.88104 45.04 8.76007 44.7981 8.76007 44.5003V35.9576L0.6082 33.2775C0.310414 33.1844 0.124299 32.9983 0.0498524 32.7192C-0.0432054 32.4028 -0.00598229 32.1329 0.161522 31.9095L5.18665 24.986L0.161522 18.0625C-0.00598229 17.8206 -0.0432054 17.5507 0.0498524 17.2529C0.124299 16.9738 0.310414 16.7876 0.6082 16.6946L8.76007 14.0145V5.4718C8.76007 5.17402 8.88104 4.93207 9.123 4.74595C9.40217 4.55984 9.67204 4.52261 9.9326 4.63428L18.0845 7.25851L23.1096 0.335008C23.2771 0.111669 23.519 0 23.8354 0C24.1518 0 24.3938 0.111669 24.5613 0.335008L29.5864 7.25851L37.7383 4.63428C37.9989 4.52261 38.2687 4.55984 38.5479 4.74595C38.7898 4.93207 38.9108 5.17402 38.9108 5.4718V14.0145L47.0627 16.6946C47.3605 16.7876 47.5466 16.9738 47.621 17.2529C47.7141 17.5507 47.6769 17.8206 47.5094 18.0625L42.4842 24.986L47.5094 31.9095C47.6769 32.1329 47.7141 32.4028 47.621 32.7192Z" fill="white"/>
<path d="M31 25C31 29.1421 27.6421 32.5 23.5 32.5C19.3579 32.5 16 29.1421 16 25C16 20.8579 19.3579 17.5 23.5 17.5C27.6421 17.5 31 20.8579 31 25Z" fill="white"/>
</svg>
